Format : AVI
Format/Info : Audio Video Interleave
File size : 1.38 GiB
Duration : 1h 37mn
Overall bit rate : 2 025 Kbps

Video
ID : 0
Format : MPEG-4 Visual
Format profile : Advanced Simple@L5
Format settings, BVOP : Yes
Format settings, QPel : No
Format settings, GMC : No warppoints
Format settings, Matrix : Default (MPEG)
Codec ID : XVID
Codec ID/Hint : XviD
Duration : 1h 37mn
Bit rate : 1 885 Kbps
Width : 720 pixels
Height : 304 pixels
Display aspect ratio : 2.35:1
Frame rate : 25.000 fps
Resolution : 8 bits
Colorimetry : 4:2:0
Scan type : Progressive
Bits/(Pixel*Frame) : 0.344
Stream size : 1.28 GiB (93%)
Writing library : XviD 1.2.1 (UTC 2008-12-04)

Audio
ID : 1
Format : MPEG Audio
Format version : Version 1
Format profile : Layer 3
Codec ID : 55
Codec ID/Hint : MP3
Duration : 1h 37mn
Bit rate mode : Constant
Bit rate : 128 Kbps
Channel(s) : 2 channels
Sampling rate : 44.1 KHz
Stream size : 89.3 MiB (6%)
Alignment : Split accross interleaves
Interleave, duration : 26 ms (0.65 video frame)